<?xml version="1.0" standalone="no"?>
<!DOCTYPE svg PUBLIC "-//W3C//DTD SVG 20010904//EN"
 "http://www.w3.org/TR/2001/REC-SVG-20010904/DTD/svg10.dtd">
<svg version="1.0" xmlns="http://www.w3.org/2000/svg"
 width="1023.000000pt" height="1023.000000pt" viewBox="0 0 1023.000000 1023.000000"
 preserveAspectRatio="xMidYMid meet">
<metadata>
Created by potrace 1.11, written by Peter Selinger 2001-2013
</metadata>
<g transform="translate(0.000000,1023.000000) scale(0.100000,-0.100000)"
fill="#000000" stroke="none">
<path d="M5760 10138 c-7 -51 -14 -100 -15 -108 -2 -8 -5 -35 -9 -60 -7 -45
-10 -73 -20 -165 -3 -27 -8 -59 -11 -70 -2 -11 -7 -54 -11 -95 -10 -105 -12
-125 -13 -125 -1 0 -4 -31 -6 -69 -3 -38 -6 -71 -8 -73 -2 -2 -127 -6 -278 -8
-441 -9 -680 -20 -849 -41 -30 -3 -66 -8 -80 -9 -87 -10 -135 -17 -200 -30
-14 -3 -41 -8 -60 -11 -19 -3 -43 -7 -52 -10 -16 -5 -38 -10 -84 -19 -12 -3
-62 -17 -110 -31 -49 -14 -93 -27 -99 -28 -40 -11 -262 -100 -330 -134 -102
-51 -229 -124 -233 -133 -2 -5 -8 -9 -14 -9 -13 0 -181 -120 -191 -137 -4 -7
-13 -13 -19 -13 -14 0 -147 -120 -284 -255 -61 -60 -124 -120 -140 -132 -57
-42 -272 -261 -347 -352 -20 -25 -132 -174 -163 -216 l-20 -29 -65 45 c-35 24
-66 46 -69 49 -3 3 -27 21 -55 39 -27 19 -52 37 -55 40 -3 4 -34 26 -70 50
-36 25 -67 48 -70 51 -6 6 -80 60 -195 139 -44 30 -86 61 -93 67 -6 7 -21 16
-32 19 -11 3 -20 11 -20 16 0 5 -4 9 -10 9 -5 0 -38 20 -73 43 -35 24 -84 55
-108 68 -24 13 -46 26 -49 29 -13 13 -150 74 -190 85 -85 21 -136 1 -161 -65
-13 -36 -22 -197 -11 -214 3 -6 7 -19 8 -30 6 -56 55 -230 83 -296 5 -14 22
-56 37 -95 14 -38 39 -98 55 -133 16 -35 29 -66 29 -68 0 -6 32 -77 86 -190
19 -42 34 -78 31 -80 -2 -3 -31 -14 -63 -25 -32 -11 -73 -27 -91 -35 -17 -7
-33 -14 -36 -14 -3 0 -36 -14 -74 -32 -37 -18 -70 -32 -73 -33 -12 -1 -261
-136 -313 -169 -31 -20 -61 -36 -67 -36 -5 0 -10 -4 -10 -10 0 -5 -7 -10 -15
-10 -8 0 -15 -4 -15 -10 0 -5 -4 -10 -9 -10 -10 0 -113 -67 -121 -79 -3 -4
-27 -22 -54 -41 -28 -18 -78 -62 -113 -97 -69 -70 -77 -97 -51 -172 41 -117
262 -276 588 -424 30 -14 78 -35 105 -48 28 -13 52 -24 55 -24 3 -1 16 -6 30
-12 122 -51 274 -113 313 -128 26 -10 50 -22 53 -27 3 -5 -7 -30 -22 -56 -38
-67 -196 -296 -206 -300 -4 -2 -8 -8 -8 -12 0 -5 -24 -47 -53 -92 -106 -167
-135 -276 -94 -353 45 -81 104 -99 272 -81 63 6 87 10 170 26 85 17 130 27
130 30 0 1 11 4 24 6 39 7 141 34 192 50 25 9 52 17 60 18 8 2 21 6 29 9 8 3
47 16 85 28 39 12 86 29 105 37 19 9 55 23 80 32 25 9 53 20 62 24 13 6 24 -3
48 -41 86 -138 238 -313 351 -405 23 -18 47 -38 54 -45 7 -7 16 -8 21 -3 6 6
34 -18 69 -57 76 -85 268 -275 319 -317 21 -17 50 -42 66 -56 15 -14 42 -36
61 -50 18 -14 57 -44 86 -67 29 -24 56 -43 60 -43 5 0 19 -10 33 -23 25 -23
255 -167 266 -167 3 0 19 -9 35 -21 16 -11 29 -17 29 -12 0 4 4 3 8 -3 4 -5
23 -17 42 -26 19 -9 71 -33 114 -53 l79 -37 -42 -24 c-24 -13 -45 -24 -47 -24
-3 0 -10 -5 -17 -10 -7 -6 -46 -32 -87 -59 -207 -132 -438 -341 -595 -536 -22
-28 -45 -55 -51 -62 -7 -7 -43 -59 -80 -115 -38 -57 -75 -109 -81 -116 -7 -7
-13 -18 -13 -23 0 -6 -13 -30 -30 -53 -16 -24 -26 -46 -23 -50 4 -3 1 -6 -5
-6 -7 0 -12 -6 -12 -14 0 -7 -9 -25 -20 -39 -11 -14 -20 -32 -20 -41 0 -9 -4
-16 -10 -16 -5 0 -10 -5 -10 -12 0 -6 -13 -39 -30 -72 -57 -117 -120 -277
-180 -457 -33 -99 -62 -188 -64 -197 -12 -63 -18 -72 -60 -83 -153 -42 -227
-83 -323 -179 -76 -77 -115 -133 -158 -225 -15 -33 -29 -61 -30 -63 -1 -1 -42
18 -92 43 -177 90 -342 94 -493 11 -99 -54 -124 -66 -138 -66 -56 0 -176 -108
-168 -152 0 -4 -14 -22 -32 -41 -41 -43 -47 -94 -20 -185 17 -56 97 -227 121
-257 4 -5 22 -32 40 -60 17 -27 37 -56 44 -63 7 -8 18 -22 23 -33 19 -35 268
-299 283 -299 4 0 18 -11 31 -25 13 -14 28 -25 35 -25 6 0 11 -4 11 -8 0 -5
10 -14 23 -20 12 -6 40 -23 62 -37 50 -32 134 -71 200 -93 56 -19 90 -25 172
-28 95 -3 191 19 282 66 52 27 82 35 156 44 63 8 141 18 185 25 25 3 57 6 73
6 15 -1 27 3 27 7 0 5 8 4 19 -1 10 -6 21 -8 24 -5 11 12 406 18 562 9 102 -6
228 -15 280 -21 28 -3 68 -7 90 -9 101 -10 132 -14 160 -18 17 -3 59 -9 95
-13 82 -9 96 -11 146 -18 23 -4 61 -9 85 -11 24 -3 55 -6 69 -8 14 -2 54 -7
90 -11 36 -4 76 -9 90 -11 14 -2 45 -7 70 -10 24 -4 63 -17 85 -31 l42 -24
1004 0 1004 0 35 28 c66 52 165 158 209 224 l43 66 74 -44 c41 -24 79 -44 84
-44 6 0 10 -4 10 -10 0 -5 6 -10 13 -10 7 0 44 -16 82 -36 68 -36 157 -74 320
-137 l80 -31 478 -4 c468 -3 478 -2 506 18 16 11 32 20 35 20 10 0 67 51 151
136 93 94 125 130 125 144 0 5 6 13 12 17 14 9 27 27 111 150 56 83 145 229
185 303 38 72 94 174 100 185 4 6 7 16 9 24 1 8 8 18 15 22 7 5 9 9 5 9 -4 0
3 19 16 43 33 59 155 328 216 477 29 69 59 141 67 160 8 19 15 38 14 43 0 4 6
20 14 36 13 25 41 94 50 126 2 6 8 21 13 35 6 14 18 45 26 70 9 25 27 75 40
113 14 37 23 67 20 67 -3 0 -1 6 4 13 9 10 35 78 38 97 0 3 9 30 20 60 10 30
20 60 21 65 1 6 9 29 17 52 9 22 13 44 10 47 -4 3 0 6 7 6 7 0 11 2 8 5 -3 3
3 34 14 68 30 95 80 260 83 277 2 8 4 15 5 15 1 0 3 11 6 25 2 14 7 32 11 40
3 8 7 20 8 25 2 6 21 78 43 160 36 137 46 176 58 227 2 10 6 26 8 35 2 10 9
41 15 68 7 28 20 86 31 130 19 77 29 128 35 170 2 11 8 38 13 60 12 43 18 73
28 144 4 25 9 55 11 66 6 28 13 61 17 87 11 67 16 98 21 143 4 28 8 57 10 65
3 8 7 40 10 70 8 78 16 150 20 169 10 53 19 266 19 451 0 217 -4 276 -29 420
-24 133 -89 273 -160 345 l-54 53 29 40 c74 102 95 179 59 215 -18 17 -125 55
-179 63 -19 2 -45 7 -56 9 -93 20 -629 27 -804 11 -47 -5 -98 -9 -115 -11 -43
-3 -157 -17 -176 -20 -40 -8 -127 -19 -151 -19 -16 -1 -28 -5 -28 -10 0 -5 -3
-7 -6 -4 -3 3 -30 0 -60 -7 -30 -7 -56 -10 -58 -6 -3 4 -5 67 -6 141 -1 74 -3
151 -5 170 -2 19 -6 76 -10 125 -3 50 -8 106 -10 125 -8 75 -15 126 -19 155
-23 160 -29 207 -32 250 -1 28 -6 61 -9 75 -4 14 -10 41 -15 60 -27 117 -117
356 -167 449 -70 128 -91 164 -151 256 -36 55 -68 102 -71 105 -3 3 -33 39
-66 80 -90 113 -109 134 -251 275 -72 72 -175 166 -230 210 -54 44 -101 82
-104 85 -16 18 -183 137 -290 207 -69 45 -129 86 -135 91 -5 4 -36 23 -67 41
-32 18 -60 37 -63 42 -4 5 -11 7 -16 4 -22 -14 -5 42 47 151 31 66 70 148 86
184 17 36 46 99 65 140 19 41 67 145 105 230 39 85 87 191 108 235 20 44 45
98 55 120 10 22 24 52 32 68 l14 27 -729 0 -729 0 -13 -92z m1580 -6216 c0 -4
17 -27 38 -50 92 -102 91 -96 30 -164 -18 -20 -40 -45 -48 -55 -53 -65 -106
-129 -111 -133 -10 -9 -234 -293 -294 -375 -33 -44 -63 -81 -67 -83 -5 -2 -8
-10 -8 -17 0 -7 -3 -15 -8 -17 -9 -4 -97 -122 -178 -238 -32 -47 -62 -86 -66
-88 -5 -2 -8 -10 -8 -18 0 -24 -20 -15 -31 13 -12 32 -25 61 -68 156 -17 37
-31 70 -31 73 0 3 -9 18 -20 34 -11 15 -17 30 -13 34 3 3 1 6 -5 6 -7 0 -12 5
-12 12 0 11 -167 319 -179 328 -3 3 -12 17 -20 32 -8 15 -23 37 -33 48 -10 11
-16 20 -12 20 3 0 1 6 -6 14 -9 12 -4 17 32 26 124 33 252 81 371 141 83 42
92 45 82 29 -9 -14 -7 -14 92 21 128 45 245 94 353 149 86 43 119 61 183 97
26 15 37 16 37 5z"/>
<path d="M9623 1445 l-21 -45 22 -15 c19 -14 22 -14 33 2 16 21 16 33 0 72
l-13 31 -21 -45z"/>
</g>
</svg>
