<?xml version="1.0" standalone="no"?>
<!DOCTYPE svg PUBLIC "-//W3C//DTD SVG 20010904//EN"
 "http://www.w3.org/TR/2001/REC-SVG-20010904/DTD/svg10.dtd">
<svg version="1.0" xmlns="http://www.w3.org/2000/svg"
 width="1458.000000pt" height="1458.000000pt" viewBox="0 0 1458.000000 1458.000000"
 preserveAspectRatio="xMidYMid meet">
<metadata>
Created by potrace 1.11, written by Peter Selinger 2001-2013
</metadata>
<g transform="translate(0.000000,1458.000000) scale(0.100000,-0.100000)"
fill="#000000" stroke="none">
<path d="M9613 14556 c-60 -34 -154 -123 -215 -201 -12 -16 -30 -38 -40 -49
-46 -51 -229 -328 -299 -454 -14 -26 -38 -67 -52 -92 -55 -95 -198 -382 -267
-535 -39 -88 -75 -169 -80 -180 -31 -69 -202 -507 -214 -550 -2 -5 -6 -17 -9
-25 -8 -19 -107 -320 -112 -340 -3 -8 -25 -85 -51 -170 -25 -85 -52 -180 -60
-210 -8 -30 -19 -71 -25 -90 -12 -45 -18 -69 -24 -102 -3 -15 -9 -38 -15 -52
-5 -15 -7 -26 -4 -26 2 0 0 -8 -5 -17 -5 -10 -12 -31 -15 -48 -3 -16 -15 -70
-26 -120 -12 -49 -24 -103 -26 -120 -3 -16 -9 -46 -14 -65 -5 -19 -12 -50 -15
-69 -3 -19 -8 -37 -10 -40 -2 -4 -6 -27 -10 -51 -3 -25 -8 -52 -10 -60 -2 -8
-7 -31 -10 -50 -3 -19 -16 -96 -29 -170 -22 -124 -35 -203 -42 -255 -1 -11 -5
-38 -8 -60 -34 -236 -49 -358 -71 -600 -4 -33 -7 -61 -9 -62 -1 -2 -124 -5
-272 -8 -302 -5 -525 -13 -629 -21 -38 -3 -92 -7 -120 -9 -27 -2 -72 -6 -100
-10 -90 -11 -129 -16 -170 -20 -22 -2 -40 -4 -40 -5 0 -2 -21 -6 -65 -14 -184
-30 -531 -127 -564 -157 -6 -5 -16 -9 -24 -9 -16 0 -304 -139 -312 -150 -3 -4
-19 -15 -37 -24 -32 -16 -124 -75 -133 -85 -3 -4 -27 -22 -55 -40 -99 -69
-186 -144 -334 -291 -58 -58 -137 -132 -175 -165 -165 -142 -333 -327 -471
-518 -27 -37 -52 -66 -55 -64 -3 1 -17 9 -32 16 -16 8 -28 18 -28 23 0 4 -7 8
-15 8 -8 0 -15 4 -15 8 0 4 -12 15 -27 24 -16 9 -37 24 -48 33 -11 8 -65 48
-120 87 -55 40 -101 76 -103 80 -2 4 -9 8 -15 8 -7 0 -24 10 -38 23 -14 12
-32 27 -41 32 -41 26 -134 91 -144 100 -6 5 -55 39 -110 75 -54 36 -101 68
-102 73 -2 4 -8 5 -13 1 -5 -3 -9 0 -9 5 0 6 -7 11 -15 11 -8 0 -15 5 -15 10
0 6 -5 10 -11 10 -6 0 -24 9 -40 21 -16 11 -29 17 -29 13 0 -4 -8 0 -17 8 -28
23 -129 67 -173 75 -46 7 -55 8 -87 1 -25 -6 -36 -17 -56 -59 -22 -46 -24 -64
-22 -138 2 -47 6 -101 9 -120 13 -80 70 -257 137 -426 7 -16 13 -32 14 -35 0
-3 11 -27 23 -54 12 -27 22 -50 22 -52 0 -3 22 -52 94 -208 38 -81 37 -95 -4
-96 -9 0 -20 -4 -25 -8 -6 -5 -32 -17 -60 -26 -62 -22 -64 -23 -208 -90 -65
-30 -120 -55 -124 -55 -3 1 -9 -3 -12 -8 -3 -4 -24 -17 -46 -28 -46 -23 -268
-155 -275 -164 -3 -3 -25 -19 -50 -35 -148 -95 -290 -232 -290 -279 0 -17 32
-90 52 -121 12 -18 91 -98 120 -121 86 -70 291 -185 463 -260 22 -9 58 -25 80
-36 22 -10 69 -30 105 -44 36 -15 81 -34 100 -42 52 -23 86 -37 177 -74 80
-32 82 -34 68 -53 -8 -12 -27 -43 -43 -71 -16 -27 -46 -71 -66 -98 -20 -26
-36 -52 -36 -57 0 -6 -4 -10 -10 -10 -5 0 -10 -6 -10 -13 0 -7 -8 -22 -17 -33
-29 -33 -63 -83 -63 -93 0 -5 -3 -11 -8 -13 -8 -3 -57 -80 -95 -150 -33 -59
-56 -146 -52 -192 7 -69 62 -135 119 -144 40 -5 142 -5 184 2 18 3 50 8 70 11
21 3 49 8 62 11 14 3 36 7 50 9 37 5 268 63 321 81 25 8 54 16 65 19 30 6 187
62 282 100 47 19 87 35 89 35 2 0 23 -30 46 -67 65 -100 153 -208 243 -295
131 -127 174 -161 174 -137 0 7 33 -23 73 -67 92 -101 238 -245 310 -307 109
-94 227 -187 236 -187 5 0 11 -4 13 -8 4 -12 136 -102 148 -102 5 0 10 -4 10
-9 0 -5 12 -16 28 -24 15 -7 69 -38 121 -68 52 -30 97 -52 99 -51 3 2 8 0 11
-5 6 -8 79 -48 90 -48 3 -1 21 -9 38 -18 18 -10 35 -17 38 -17 13 -1 35 -13
35 -21 0 -5 -15 -16 -32 -25 -49 -25 -250 -159 -275 -183 -12 -12 -26 -21 -30
-21 -5 0 -26 -16 -46 -35 -20 -19 -39 -35 -42 -35 -10 0 -210 -193 -285 -277
-15 -15 -53 -62 -85 -103 -33 -41 -63 -77 -67 -78 -5 -2 -8 -8 -8 -13 0 -6
-17 -33 -38 -62 -61 -84 -194 -308 -222 -377 -6 -14 -22 -50 -36 -80 -66 -142
-94 -208 -94 -224 0 -8 -4 -17 -8 -20 -5 -3 -34 -85 -66 -183 -32 -98 -61
-185 -64 -193 -3 -8 -6 -22 -8 -31 -8 -37 -23 -66 -36 -66 -7 0 -33 -6 -58
-13 -25 -7 -46 -12 -48 -11 -5 3 -108 -54 -114 -63 -4 -6 -8 -7 -8 -3 0 11
-93 -65 -138 -113 -47 -48 -104 -134 -136 -202 -15 -32 -32 -60 -37 -63 -5 -4
-21 2 -37 13 -37 26 -130 68 -182 82 -85 23 -194 18 -295 -13 -16 -5 -98 -46
-132 -67 -17 -10 -50 -24 -71 -30 -62 -16 -133 -70 -158 -120 -12 -25 -21 -47
-19 -51 3 -3 -6 -11 -18 -18 -70 -38 -54 -160 48 -356 79 -153 168 -275 307
-422 27 -29 51 -53 53 -53 1 0 18 -15 37 -32 36 -36 85 -77 110 -93 8 -5 35
-23 59 -39 87 -58 215 -115 296 -131 60 -13 182 -13 242 0 34 7 92 28 129 46
71 35 78 37 130 44 18 2 41 6 50 9 9 3 40 8 67 11 28 3 66 7 86 10 211 32 752
32 984 1 22 -3 69 -8 105 -11 36 -3 83 -8 105 -10 22 -3 60 -7 85 -10 25 -3
61 -7 80 -10 19 -3 53 -7 75 -9 22 -3 40 -5 40 -6 0 -1 14 -3 30 -4 40 -4 143
-17 175 -22 14 -2 45 -6 70 -8 25 -3 62 -7 83 -10 20 -3 53 -8 72 -11 19 -3
103 -39 188 -80 85 -41 161 -75 169 -75 8 0 18 -4 24 -9 11 -10 205 -77 284
-98 30 -8 64 -20 76 -28 17 -11 67 -28 119 -41 6 -1 37 -9 70 -18 101 -27 117
-30 225 -30 62 -1 126 5 155 13 63 18 160 65 205 101 25 20 51 29 95 34 33 4
76 10 95 13 19 4 42 7 50 8 29 4 117 29 175 51 11 4 23 6 28 6 4 -1 7 3 7 10
0 6 3 9 6 5 9 -8 129 57 194 106 96 73 105 81 213 219 11 12 24 33 30 46 12
27 23 27 62 4 27 -17 90 -53 141 -80 65 -36 188 -92 200 -92 8 0 14 -4 14 -10
0 -5 11 -10 25 -10 14 0 25 -3 25 -8 0 -6 38 -22 90 -37 8 -2 48 -15 87 -29
40 -14 83 -27 95 -28 13 -2 28 -6 33 -9 6 -4 42 -12 80 -19 39 -7 77 -15 85
-17 81 -28 405 -32 520 -8 14 3 40 8 58 11 48 8 115 38 180 81 69 46 210 185
277 273 27 36 52 67 55 70 4 3 15 20 25 38 11 17 23 32 27 32 4 0 8 4 8 10 0
5 20 40 45 76 25 37 55 83 65 103 11 20 31 54 45 76 32 52 47 80 142 265 120
235 232 485 337 755 26 66 52 129 57 140 6 12 11 27 13 35 2 8 8 29 15 45 7
17 21 55 31 85 11 30 38 107 61 170 22 63 47 135 54 160 7 25 24 78 38 117 14
40 24 73 22 73 -2 0 4 20 15 45 11 25 21 55 23 68 2 12 6 29 9 37 32 95 170
600 193 708 2 9 15 64 28 122 14 58 28 119 30 137 3 17 7 36 10 40 3 5 8 27
11 48 3 22 10 59 16 83 5 23 13 59 16 80 3 20 7 47 10 60 2 12 6 32 8 45 3 12
7 38 10 57 3 19 8 44 10 56 2 12 7 45 11 75 4 30 8 56 10 59 2 3 6 30 9 60 4
30 9 66 11 80 2 14 7 57 11 95 3 39 8 79 10 90 17 86 24 614 10 720 -6 44 -17
111 -32 183 -22 107 -84 230 -151 299 -30 30 -51 58 -46 62 15 11 68 95 85
136 21 49 22 82 5 99 -18 18 -71 45 -99 50 -13 3 -23 5 -23 6 0 4 -155 31
-205 36 -71 6 -313 16 -335 14 -20 -2 -42 -2 -67 1 -17 1 -262 -11 -313 -16
-22 -2 -76 -6 -119 -10 -44 -4 -88 -9 -99 -11 -11 -2 -45 -6 -76 -9 -31 -4
-63 -8 -71 -10 -8 -2 -37 -7 -65 -11 -27 -3 -59 -8 -70 -11 -11 -2 -31 -6 -45
-9 -14 -2 -31 -7 -38 -9 -19 -7 -21 5 -26 195 -4 153 -7 217 -21 370 -2 19 -4
35 -5 35 0 0 -3 22 -5 50 -5 50 -12 103 -19 141 -6 31 -16 111 -22 179 -5 66
-8 83 -16 105 -3 8 -16 53 -29 100 -22 82 -62 196 -95 270 -35 78 -107 216
-122 233 -8 9 -11 17 -6 17 5 0 5 4 -1 8 -5 4 -19 23 -29 42 -11 19 -25 39
-33 43 -7 4 -13 13 -13 19 0 33 -213 292 -365 443 -145 145 -192 187 -355 313
-52 41 -98 80 -102 86 -5 6 -8 7 -8 1 0 -6 -3 -6 -8 1 -4 5 -36 30 -72 55 -36
24 -69 47 -75 52 -39 29 -116 77 -124 77 -5 0 -11 3 -13 8 -3 8 -84 62 -93 62
-4 0 -26 14 -50 30 l-44 30 24 48 c13 26 35 72 48 102 24 53 86 187 149 319
16 36 48 105 69 153 21 49 49 107 61 131 12 23 23 47 24 53 1 6 18 43 38 83
19 39 36 75 37 79 1 4 20 45 41 92 22 47 62 132 88 190 26 58 67 146 90 195
23 50 43 95 44 100 1 6 6 17 11 25 5 8 10 17 11 20 1 6 27 63 83 183 22 49 41
90 41 92 0 2 16 38 36 82 66 143 81 177 159 353 42 96 89 202 104 235 15 33
36 80 46 105 10 25 30 72 46 105 15 33 33 77 40 98 7 20 16 37 19 37 4 0 7 6
8 13 0 6 28 78 61 159 33 81 63 159 66 173 3 14 8 37 12 53 9 37 9 254 -1 327
-17 138 -27 209 -31 215 -2 3 -6 25 -10 50 -4 25 -8 47 -10 50 -2 3 -6 25 -10
50 -4 24 -10 51 -15 60 -4 8 -8 17 -7 20 1 10 -25 116 -40 160 -14 43 -17 55
-27 99 -3 11 -10 30 -17 43 -7 13 -12 24 -11 26 1 1 1 4 1 7 -1 3 -3 10 -4 15
-1 6 -4 12 -5 15 -1 3 -3 8 -4 13 -1 4 -6 21 -13 37 -6 17 -28 75 -48 130
-108 291 -268 538 -365 565 -50 14 -60 13 -107 -14z m-87 -10325 c10 -10 29
-32 41 -48 12 -15 34 -41 48 -57 14 -16 25 -31 25 -33 0 -2 -11 -16 -24 -31
-37 -41 -58 -66 -91 -107 -16 -21 -37 -45 -45 -54 -50 -53 -420 -527 -420
-537 0 -2 -9 -15 -21 -27 -12 -12 -28 -33 -37 -47 -9 -14 -46 -65 -82 -115
-36 -49 -69 -98 -73 -107 -3 -10 -11 -18 -17 -18 -5 0 -10 -6 -10 -13 0 -8 -8
-21 -19 -31 -17 -16 -19 -14 -39 31 -11 26 -21 51 -22 55 -2 14 -163 334 -186
369 -13 20 -21 39 -18 41 2 3 -2 11 -11 18 -8 7 -15 16 -15 21 0 11 -63 113
-72 117 -5 2 -8 8 -8 13 0 5 -16 33 -35 63 l-35 55 42 11 c74 20 221 70 276
96 29 13 57 24 62 24 6 0 10 5 10 10 0 6 3 9 8 8 4 -1 25 8 48 19 27 14 45 18
51 12 6 -6 22 -4 46 6 20 8 39 15 42 16 6 0 135 47 160 59 11 5 49 21 85 36
75 32 184 89 256 132 60 37 56 36 80 13z"/>
<path d="M11815 1795 c-5 -11 -14 -34 -20 -51 -12 -30 -11 -32 11 -43 22 -10
26 -8 36 14 8 18 8 31 0 48 -6 12 -13 29 -15 37 -4 12 -6 11 -12 -5z"/>
</g>
</svg>
